<svg version="1.1" xmlns="http://www.w3.org/2000/svg"
  xmlns:xlink="http://www.w3.org/1999/xlink"
  viewBox="0 0 800 800" style="enable-background:new 0 0 800 800;" xml:space="preserve"
>
  <path style="fill:#444242;"
d="M331.14,513.927c0.572,0.069,1.139,0.103,1.687,0.103c0.593,0,1.184-0.042,1.757-0.121
c0.634,0.484,1.34,0.895,2.11,1.23c-2.984,0.067-5.59,0.148-7.741,0.208c-2.181,0.059-3.896,0.126-5.064,0.163
    c-1.169,0.042-1.792,0.065-1.792,0.065s0.623,0.022,1.792,0.065c1.168,0.037,2.883,0.104,5.064,0.161
c2.182,0.064,4.831,0.145,7.869,0.212c1.077,0.025,2.204,0.052,3.374,0.079c0.093,0.014,0.185,0.027,0.278,0.037
    c0.547,0.066,1.11,0.1,1.673,0.1c0.453,0,0.905-0.024,1.355-0.063c1.142,0.021,2.315,0.044,3.525,0.066
c1.87,0.034,3.818,0.069,5.834,0.107c2.017,0.028,4.1,0.06,6.243,0.09c4.285,0.056,8.804,0.126,13.479,0.154
c2.338,0.019,4.714,0.039,7.119,0.059c1.202,0.01,2.412,0.02,3.629,0.029c1.216,0.003,2.439,0.008,3.665,0.012
c4.908,0.014,9.895,0.027,14.881,0.04c4.986-0.012,9.972-0.021,14.881-0.034c1.227-0.005,2.448-0.01,3.665-0.015
c1.217-0.01,2.427-0.02,3.629-0.03c2.406-0.019,4.782-0.039,7.119-0.058c4.675-0.028,9.193-0.097,13.479-0.154
c2.143-0.03,4.227-0.06,6.243-0.089c2.016-0.037,3.963-0.074,5.833-0.109c1.398-0.026,2.753-0.054,4.059-0.078
c0.488,0.047,0.978,0.072,1.468,0.072c0.564,0,1.126-0.033,1.674-0.1c0.134-0.016,0.266-0.033,0.399-0.052
c0.896-0.023,1.768-0.042,2.609-0.063c3.037-0.066,5.687-0.149,7.868-0.211c2.181-0.06,3.896-0.126,5.064-0.163
    c1.169-0.042,1.792-0.065,1.792-0.065s-0.623-0.023-1.792-0.067c-1.168-0.035-2.883-0.104-5.064-0.161
c-2-0.059-4.395-0.133-7.122-0.195c0.78-0.339,1.494-0.753,2.137-1.243c0.573,0.079,1.164,0.121,1.757,0.121
c0.549,0,1.117-0.034,1.688-0.103c3.355-0.405,5.884-1.471,7.515-3.168c1.339-1.395,2.014-3.224,1.898-5.145
c-0.177-2.945-2.115-5.432-4.232-5.432c-0.107,0-0.214,0.006-0.317,0.019c-0.212,0.025-0.361,0.217-0.336,0.427
c0.023,0.195,0.189,0.338,0.38,0.338c0.015,0,0.031-0.001,0.047-0.003c0.06-0.007,0.119-0.011,0.179-0.011
c1.34,0,2.537,1.803,2.671,4.018c0.184,3.076-1.713,6.617-7.583,7.321c-0.628,0.075-1.232,0.111-1.852,0.111
    c-0.09,0-0.18,0-0.268-0.002c2.006-2.514,2.1-5.563,1.237-7.597c-0.808-1.904-2.453-3.041-4.402-3.041
c-0.216,0-0.435,0.014-0.656,0.039c-2.531,0.307-4.306,2.144-4.521,4.68c-0.121,1.44,0.284,2.921,1.142,4.166
c0.803,1.167,1.954,2.068,3.365,2.642c-0.997,0.434-2.1,0.721-3.346,0.87c-0.452,0.054-0.915,0.081-1.379,0.081
c-4.809,0-9.367-2.861-14.192-5.89c-2.539-1.592-5.162-3.237-7.828-4.429c-0.882-2.648-2.71-5.111-5.159-6.943
c-0.659-0.492-1.35-0.929-2.067-1.31c2.868,0.536,5.686,1.436,8.415,2.419c2.78,1.002,5.527,2.199,8.369,3.023
c2.308,0.669,5.271,1.074,7.215-0.699c1.365-1.248,2.224-3.383,1.387-5.159c-0.839-1.781-3.052-2.33-4.73-1.369
c-1.686,0.966-2.426,3.002-1.257,4.68c0.344,0.492,0.814,0.888,1.347,1.161c-0.447,0.058-0.907,0.058-1.351,0.003
c-2.442-0.294-4.821-1.394-7.109-2.248c-8.072-3.015-17.281-6.175-25.621-2.703c-2.63,0.897-4.855,2.394-6.551,4.43
c-0.143-0.009-0.283-0.013-0.422-0.013c-0.271,0-0.541,0.016-0.804,0.048c-1.548,0.185-2.782,0.533-3.784,0.988
c-0.453-0.205-0.948-0.35-1.485-0.416c-0.213-0.024-0.423-0.038-0.625-0.038c-1.546,0-2.75,0.755-3.482,2.182
c-0.534,1.042-0.623,2.075-0.627,2.116c-0.017,0.203,0.126,0.382,0.326,0.412c0.019,0.002,0.037,0.004,0.056,0.004
c0.179,0,0.337-0.124,0.375-0.303c0.025-0.115,0.648-2.824,3.219-2.824c0.127,0,0.258,0.008,0.391,0.021
c-1.415,1.184-2.135,2.666-2.806,4.049c-0.525,1.083-1.012,2.084-1.8,2.817c-0.788-0.733-1.273-1.734-1.799-2.817
c-0.671-1.383-1.391-2.865-2.806-4.049c0.133-0.013,0.264-0.021,0.391-0.021c2.583,0,3.212,2.795,3.218,2.824
c0.038,0.179,0.196,0.303,0.375,0.303c0.019,0,0.037-0.002,0.056-0.004c0.2-0.03,0.343-0.209,0.327-0.412
c-0.004-0.041-0.094-1.074-0.629-2.116c-0.732-1.427-1.936-2.18-3.481-2.182c-0.201,0-0.411,0.014-0.625,0.038
c-0.518,0.064-1.014,0.207-1.478,0.419c-1.004-0.458-2.239-0.807-3.791-0.991c-0.264-0.032-0.534-0.048-0.805-0.048
c-0.138,0-0.279,0.004-0.422,0.013c-1.478-1.776-3.364-3.142-5.567-4.057c-8.556-4.058-18.115-0.786-26.46,2.33
c-2.288,0.855-4.667,1.954-7.109,2.248c-0.444,0.055-0.903,0.055-1.35-0.003c0.531-0.273,1.002-0.669,1.346-1.161
c1.169-1.678,0.429-3.714-1.257-4.68c-1.679-0.961-3.892-0.412-4.731,1.369c-0.837,1.776,0.022,3.911,1.388,5.159
c1.944,1.773,4.906,1.368,7.214,0.699c2.841-0.823,5.588-2.021,8.369-3.023c2.66-0.958,5.403-1.838,8.195-2.378
c-0.69,0.372-1.356,0.792-1.992,1.268c-2.449,1.831-4.277,4.295-5.16,6.943c-2.664,1.191-5.288,2.837-7.826,4.429
c-4.827,3.028-9.386,5.89-14.195,5.89c-0.462,0-0.926-0.027-1.379-0.081c-1.245-0.149-2.347-0.436-3.344-0.87
c1.411-0.573,2.563-1.475,3.366-2.642c0.857-1.245,1.262-2.726,1.141-4.166c-0.214-2.536-1.988-4.373-4.52-4.68
c-0.221-0.025-0.441-0.039-0.656-0.039c-1.949,0-3.596,1.137-4.404,3.039c-0.863,2.034-0.769,5.084,1.239,7.599
c-0.09,0.002-0.18,0.002-0.27,0.002c-0.619,0-1.224-0.036-1.85-0.111c-5.872-0.704-7.767-4.245-7.583-7.321
c0.133-2.215,1.331-4.018,2.67-4.018c0.061,0,0.119,0.004,0.179,0.011c0.015,0.002,0.031,0.003,0.045,0.003
c0.192,0,0.358-0.143,0.381-0.338c0.025-0.21-0.125-0.401-0.335-0.427c-0.105-0.013-0.212-0.019-0.318-0.019
c-2.118,0-4.057,2.486-4.233,5.432c-0.116,1.921,0.559,3.749,1.899,5.145C325.255,512.456,327.783,513.521,331.14,513.927z
M438.06,510.797c-1.365,1.412-3.483,2.326-6.124,2.645c-0.358,0.042-0.714,0.064-1.058,0.064c-3.616,0-5.708-2.343-5.839-4.548
c-0.066-1.121,0.362-2.195,1.208-3.025c0.996-0.978,2.549-1.616,4.489-1.85c0.37-0.045,0.753-0.066,1.139-0.066
    c2.23,0,4.754,0.744,7.926,2.346C439.825,508.06,439.226,509.59,438.06,510.797z M392.157,510.744
c-0.616,1.537-1.762,2.385-3.225,2.385c-0.156,0-0.318-0.011-0.48-0.03c-2.522-0.302-3.168-2.299-3.329-3.462
c-0.414-2.988,1.302-7.229,4.228-8.594c1.454,1.436,2.473,3.163,2.951,5.004C392.743,507.743,392.691,509.412,392.157,510.744z
M399.548,509.395c-0.385,0.046-0.759,0.069-1.112,0.069c-2.075,0-4.348-0.939-4.505-3.58c-0.07-1.193,0.373-2.474,1.256-3.365
c0.579,0.687,1.053,1.505,1.552,2.374c0.875,1.52,1.82,3.163,3.539,4.37C400.051,509.318,399.808,509.363,399.548,509.395z
      M393.618,502.045c-0.228,0.328-0.422,0.682-0.583,1.052c-0.325-0.843-0.73-1.66-1.22-2.434
    c0.918,0.126,1.641,0.417,2.244,0.826C393.903,501.664,393.755,501.848,393.618,502.045z
M411.37,503.092
c-0.254-0.586-0.595-1.133-1.018-1.607c0.602-0.406,1.321-0.695,2.235-0.821C412.1,501.434,411.695,502.249,411.37,503.092z
M410.471,505.884c-0.156,2.641-2.43,3.58-4.504,3.58c-0.354,0-0.728-0.023-1.112-0.069c-0.26-0.031-0.503-0.076-0.729-0.132
c1.72-1.207,2.664-2.85,3.539-4.37c0.499-0.869,0.973-1.688,1.552-2.374C410.098,503.41,410.543,504.69,410.471,505.884z
M412.102,506.047c0.478-1.841,1.498-3.567,2.95-5.004c2.439,1.159,4.729,4.986,4.228,8.594c-0.16,1.163-0.808,3.16-3.328,3.462
c-0.161,0.02-0.323,0.03-0.48,0.03c-1.464,0-2.609-0.848-3.226-2.385C411.712,509.412,411.661,507.743,412.102,506.047z
M378.156,505.934c0.847,0.83,1.275,1.904,1.209,3.025c-0.132,2.205-2.223,4.548-5.839,4.548c-0.345,0-0.701-0.022-1.059-0.064
c-2.642-0.319-4.759-1.233-6.123-2.645c-1.167-1.207-1.767-2.736-1.741-4.434c3.172-1.602,5.695-2.346,7.928-2.346
    c0.384,0,0.767,0.021,1.136,0.066C375.609,504.317,377.161,504.955,378.156,505.934z M335.064,512.246
c-2.448-1.894-2.663-4.571-2.089-6.311c0.542-1.645,1.757-2.666,3.17-2.666c0.122,0,0.246,0.008,0.369,0.022
    c1.869,0.223,3.307,1.999,3.347,4.134C339.915,510.353,337.448,511.826,335.064,512.246z
M464.542,507.426
c0.04-2.135,1.478-3.911,3.346-4.134c0.123-0.015,0.248-0.022,0.369-0.022l0,0c1.415,0,2.629,1.021,3.172,2.666
    c0.573,1.739,0.359,4.417-2.091,6.311C466.955,511.826,464.487,510.353,464.542,507.426z
M359.106,514.72
c-2.144,0.031-4.227,0.061-6.243,0.089c-1.379,0.027-2.724,0.052-4.037,0.076c3.356-1.26,6.649-3.234,9.877-5.167
c1.506-0.903,2.939-1.762,4.367-2.545c-0.006,1.913,0.598,3.615,1.765,4.957c0.968,1.113,2.278,1.938,3.908,2.466
    C365.428,514.631,362.206,514.68,359.106,514.72z
M386.998,514.465c-1.227,0.005-2.449,0.009-3.665,0.013
c-1.217,0.01-2.427,0.02-3.629,0.029c-0.785,0.007-1.567,0.013-2.347,0.021c0.613-0.26,1.173-0.581,1.666-0.967
c1.325-1.035,2.108-2.466,2.201-4.027c0.101-1.682-0.597-3.325-1.965-4.633c-1.509-1.44-3.738-2.374-6.446-2.702
c-0.536-0.063-1.085-0.096-1.63-0.096c-1.854,0-3.772,0.366-5.839,1.12c0.77-1.679,2.099-3.193,3.813-4.327
c2.237-1.481,5.035-2.265,8.092-2.265c0.752,0,1.53,0.047,2.312,0.141c3.417,0.411,6.277,1.474,8.512,3.162
c-3.418,1.772-5.05,6.306-4.597,9.73c0.33,2.497,1.651,4.198,3.675,4.801C387.099,514.465,387.048,514.465,386.998,514.465z
      M401.879,514.426c-3.882,0.01-7.763,0.02-11.609,0.032c1.153-0.395,2.107-1.254,2.759-2.521
c0.394-0.764,0.662-1.649,0.801-2.608c0.055,0.06,0.106,0.123,0.165,0.18c1.009,0.983,2.462,1.505,4.202,1.505
c0.384,0,0.786-0.025,1.198-0.074c1.08-0.131,2.003-0.362,2.806-0.667c0.803,0.305,1.727,0.536,2.806,0.667
c0.412,0.049,0.816,0.074,1.199,0.074c1.74,0,3.194-0.522,4.203-1.505c0.059-0.057,0.111-0.12,0.166-0.178
c0.138,0.957,0.406,1.843,0.8,2.606c0.65,1.263,1.599,2.12,2.748,2.516C410.068,514.444,405.975,514.435,401.879,514.426z
M424.054,514.505c-1.202-0.01-2.412-0.019-3.629-0.03c-1.049-0.005-2.103-0.01-3.16-0.013c2.018-0.606,3.333-2.306,3.663-4.798
c0.455-3.425-1.179-7.958-4.597-9.73c2.234-1.689,5.095-2.751,8.512-3.162c0.782-0.094,1.559-0.141,2.311-0.141
c3.058,0,5.856,0.783,8.092,2.265c1.714,1.134,3.043,2.648,3.813,4.327c-2.067-0.754-3.985-1.12-5.838-1.12
c-0.547,0-1.095,0.032-1.631,0.096c-2.708,0.328-4.938,1.262-6.445,2.702c-1.368,1.308-2.064,2.951-1.963,4.633
c0.092,1.561,0.874,2.992,2.2,4.027c0.494,0.387,1.055,0.709,1.671,0.969C426.058,514.521,425.059,514.512,424.054,514.505z
M450.895,514.807c-2.017-0.03-4.1-0.06-6.243-0.09c-2.901-0.039-5.911-0.084-9.002-0.115c1.636-0.53,2.948-1.356,3.92-2.472
c1.165-1.342,1.771-3.044,1.764-4.957c1.43,0.783,2.86,1.642,4.367,2.543c3.234,1.941,6.538,3.919,9.902,5.178
    C454.079,514.865,452.511,514.836,450.895,514.807z"/>
  <path style="fill:#444242;"
d="M473.263,535.55c-0.57-0.067-1.139-0.104-1.688-0.104c-0.593,0-1.184,0.041-1.757,0.122
c-0.643-0.491-1.357-0.904-2.137-1.244c2.728-0.063,5.122-0.137,7.122-0.193c2.181-0.06,3.896-0.126,5.064-0.163
    c1.169-0.043,1.792-0.066,1.792-0.066s-0.623-0.023-1.792-0.066c-1.168-0.037-2.883-0.104-5.064-0.163
c-2.182-0.064-4.831-0.145-7.868-0.212c-0.841-0.019-1.713-0.041-2.609-0.061c-0.133-0.02-0.265-0.038-0.399-0.055
c-0.548-0.065-1.11-0.099-1.674-0.099c-0.49,0-0.979,0.027-1.469,0.074c-1.306-0.026-2.66-0.052-4.058-0.079
c-1.87-0.036-3.817-0.071-5.833-0.11c-2.017-0.028-4.1-0.058-6.243-0.089c-4.285-0.058-8.804-0.126-13.479-0.154
c-2.337-0.019-4.713-0.038-7.119-0.058c-1.202-0.01-2.412-0.02-3.629-0.03c-1.217-0.005-2.438-0.01-3.665-0.015
c-4.909-0.011-9.895-0.023-14.881-0.033c-4.987,0.013-9.973,0.027-14.881,0.04c-1.227,0.005-2.449,0.007-3.665,0.012
c-1.217,0.01-2.427,0.019-3.629,0.03c-2.405,0.018-4.781,0.038-7.119,0.057c-4.675,0.027-9.193,0.099-13.479,0.155
c-2.144,0.03-4.227,0.06-6.243,0.089c-2.016,0.037-3.964,0.074-5.834,0.109c-1.21,0.02-2.383,0.043-3.526,0.066
c-0.451-0.041-0.902-0.064-1.355-0.064h-0.001c-0.562,0-1.125,0.033-1.672,0.099c-0.093,0.013-0.185,0.025-0.278,0.037
c-1.17,0.027-2.297,0.056-3.374,0.082c-3.038,0.066-5.688,0.148-7.869,0.21c-2.181,0.06-3.896,0.126-5.064,0.162
    c-1.169,0.043-1.792,0.066-1.792,0.066s0.623,0.023,1.792,0.066c1.168,0.036,2.883,0.104,5.064,0.162
c2.151,0.061,4.756,0.142,7.741,0.206c-0.771,0.337-1.476,0.747-2.11,1.233c-0.573-0.081-1.163-0.122-1.757-0.122
c-0.548,0-1.115,0.036-1.687,0.104c-3.356,0.404-5.884,1.471-7.513,3.168c-1.34,1.397-2.015,3.224-1.9,5.146
c0.177,2.943,2.115,5.432,4.233,5.432c0.106,0,0.213-0.007,0.318-0.021c0.21-0.024,0.36-0.215,0.335-0.426
c-0.024-0.194-0.189-0.338-0.381-0.338c-0.015,0-0.031,0-0.045,0.003c-0.059,0.008-0.12,0.011-0.179,0.011
c-1.34,0-2.538-1.802-2.67-4.016c-0.184-3.079,1.711-6.617,7.583-7.323c0.627-0.075,1.232-0.112,1.85-0.112
c0.09,0,0.18,0.002,0.27,0.003c-2.007,2.516-2.102,5.564-1.239,7.598c0.808,1.904,2.454,3.04,4.404,3.04
c0.214,0,0.435-0.013,0.656-0.04c2.531-0.305,4.305-2.143,4.52-4.678c0.121-1.443-0.283-2.922-1.141-4.168
c-0.803-1.165-1.955-2.067-3.366-2.639c0.997-0.436,2.099-0.722,3.344-0.87c0.453-0.055,0.917-0.082,1.379-0.082
c4.809,0,9.368,2.86,14.195,5.889c2.538,1.592,5.162,3.239,7.826,4.428c0.883,2.651,2.711,5.112,5.16,6.945
c0.636,0.476,1.303,0.897,1.992,1.268c-2.791-0.54-5.535-1.418-8.195-2.377c-2.781-1.003-5.528-2.2-8.369-3.023
c-2.308-0.668-5.269-1.074-7.214,0.701c-1.367,1.246-2.225,3.381-1.388,5.157c0.839,1.78,3.052,2.33,4.731,1.369
c1.686-0.965,2.426-3.001,1.257-4.679c-0.344-0.493-0.814-0.887-1.346-1.161c0.446-0.057,0.905-0.057,1.35-0.004
c2.442,0.294,4.821,1.396,7.109,2.248c8.345,3.118,17.903,6.388,26.458,2.332c2.205-0.917,4.09-2.28,5.569-4.058
c0.143,0.008,0.284,0.013,0.422,0.013c0.271,0,0.541-0.018,0.805-0.047c1.549-0.186,2.781-0.533,3.784-0.991
c0.452,0.207,0.946,0.352,1.484,0.415c0.213,0.027,0.424,0.04,0.625,0.04c1.546,0,2.75-0.755,3.482-2.182
c0.534-1.043,0.624-2.073,0.628-2.116c0.016-0.201-0.127-0.382-0.327-0.412c-0.018-0.002-0.037-0.003-0.056-0.003
c-0.179,0-0.337,0.123-0.375,0.303c-0.025,0.114-0.647,2.824-3.218,2.824c-0.127,0-0.258-0.008-0.391-0.021
c1.415-1.184,2.135-2.665,2.806-4.049c0.526-1.083,1.011-2.084,1.799-2.816c0.788,0.732,1.274,1.733,1.8,2.816
c0.671,1.384,1.391,2.865,2.806,4.049c-0.133,0.014-0.264,0.021-0.391,0.021c-2.583,0-3.212-2.796-3.219-2.824
c-0.038-0.179-0.196-0.303-0.375-0.303c-0.019,0-0.037,0.001-0.056,0.003c-0.2,0.03-0.343,0.211-0.326,0.412
c0.004,0.043,0.093,1.073,0.628,2.116c0.732,1.427,1.935,2.182,3.481,2.182c0.201,0,0.412-0.013,0.625-0.04
c0.518-0.062,1.014-0.205,1.477-0.417c1.003,0.457,2.239,0.806,3.79,0.993c0.265,0.029,0.535,0.047,0.806,0.047
c0.139,0,0.279-0.005,0.422-0.013c1.694,2.036,3.921,3.534,6.551,4.431c8.34,3.469,17.549,0.311,25.621-2.705
c2.288-0.852,4.667-1.954,7.109-2.248c0.443-0.053,0.903-0.053,1.351,0.004c-0.532,0.274-1.003,0.668-1.347,1.161
c-1.169,1.678-0.43,3.714,1.257,4.679c1.679,0.961,3.892,0.411,4.73-1.369c0.837-1.776-0.021-3.911-1.387-5.157
c-1.944-1.775-4.907-1.369-7.215-0.701c-2.842,0.823-5.589,2.021-8.369,3.023c-2.729,0.983-5.547,1.882-8.413,2.418
c0.717-0.381,1.407-0.816,2.065-1.309c2.449-1.833,4.277-4.294,5.159-6.945c2.665-1.189,5.289-2.836,7.828-4.428
c4.825-3.028,9.386-5.889,14.192-5.889c0.464,0,0.927,0.027,1.379,0.082c1.246,0.148,2.349,0.435,3.346,0.87
c-1.411,0.571-2.563,1.474-3.365,2.639c-0.857,1.246-1.263,2.725-1.142,4.168c0.215,2.535,1.989,4.373,4.519,4.678
c0.223,0.027,0.442,0.04,0.658,0.04c1.949,0,3.595-1.136,4.402-3.04c0.862-2.033,0.768-5.082-1.237-7.598
c0.089-0.001,0.179-0.003,0.268-0.003c0.619,0,1.224,0.037,1.852,0.112c5.87,0.706,7.766,4.244,7.583,7.323
c-0.134,2.214-1.332,4.016-2.671,4.016c-0.06,0-0.119-0.003-0.179-0.011c-0.016-0.003-0.032-0.003-0.047-0.003
c-0.19,0-0.356,0.144-0.38,0.338c-0.025,0.211,0.124,0.401,0.336,0.426c0.103,0.014,0.211,0.021,0.317,0.021
c2.118,0,4.056-2.488,4.233-5.433c0.114-1.921-0.561-3.748-1.9-5.145C479.146,537.021,476.618,535.954,473.263,535.55z
      M471.429,543.541c-0.543,1.644-1.757,2.667-3.172,2.667c-0.121,0-0.244-0.007-0.368-0.021
c-1.869-0.224-3.307-2.001-3.347-4.134c-0.055-2.929,2.413-4.402,4.796-4.821C471.787,539.124,472,541.802,471.429,543.541z
M339.86,542.053c-0.04,2.133-1.478,3.91-3.345,4.134c-0.125,0.015-0.249,0.021-0.37,0.021c-1.414,0-2.629-1.023-3.171-2.667
    c-0.572-1.739-0.359-4.417,2.09-6.31C337.448,537.65,339.915,539.124,339.86,542.053z M366.344,538.68
c1.364-1.412,3.482-2.326,6.123-2.644c0.357-0.045,0.714-0.065,1.059-0.065c3.617,0,5.708,2.343,5.84,4.547
c0.066,1.121-0.363,2.195-1.209,3.026c-0.995,0.977-2.548,1.616-4.489,1.849c-0.37,0.045-0.753,0.067-1.137,0.067
    c-2.233,0-4.756-0.746-7.928-2.345C364.578,541.416,365.177,539.887,366.344,538.68z M412.246,538.734
c0.617-1.538,1.761-2.385,3.225-2.385c0.157,0,0.319,0.01,0.48,0.029c2.52,0.301,3.168,2.298,3.328,3.462
c0.415,2.987-1.301,7.228-4.228,8.594c-1.452-1.437-2.471-3.163-2.95-5.004C411.661,541.733,411.712,540.065,412.246,538.734z
M404.854,540.083c0.385-0.047,0.759-0.07,1.112-0.07c2.075,0,4.349,0.94,4.504,3.58c0.072,1.193-0.371,2.473-1.255,3.365
c-0.579-0.685-1.053-1.503-1.552-2.373c-0.875-1.521-1.819-3.163-3.539-4.371C404.352,540.158,404.595,540.114,404.854,540.083z
      M410.785,547.433c0.228-0.327,0.422-0.682,0.583-1.053c0.326,0.844,0.731,1.66,1.219,2.433
    c-0.918-0.125-1.639-0.418-2.243-0.825C410.501,547.815,410.647,547.629,410.785,547.433z
M393.033,546.387
c0.255,0.585,0.596,1.131,1.02,1.605c-0.603,0.405-1.322,0.697-2.237,0.82C392.302,548.043,392.707,547.227,393.033,546.387z
M393.932,543.594c0.157-2.641,2.43-3.581,4.504-3.581c0.354,0,0.728,0.023,1.112,0.07c0.26,0.031,0.503,0.075,0.73,0.131
c-1.719,1.208-2.664,2.851-3.539,4.371c-0.499,0.87-0.972,1.688-1.552,2.373C394.305,546.065,393.861,544.786,393.932,543.594z
M392.301,543.43c-0.479,1.842-1.496,3.566-2.95,5.005c-2.44-1.16-4.729-4.987-4.229-8.594c0.161-1.164,0.808-3.161,3.328-3.462
c0.162-0.02,0.324-0.029,0.481-0.029l0,0c1.464,0,2.609,0.845,3.225,2.382C392.691,540.065,392.744,541.733,392.301,543.43z
M426.247,543.544c-0.847-0.831-1.274-1.905-1.209-3.026c0.132-2.204,2.223-4.547,5.839-4.547c0.345,0,0.7,0.021,1.058,0.065
c2.642,0.317,4.759,1.232,6.124,2.644c1.166,1.207,1.766,2.736,1.74,4.435c-3.172,1.599-5.695,2.345-7.926,2.345
    c-0.386,0-0.768-0.023-1.137-0.067C428.795,545.16,427.242,544.521,426.247,543.544z M444.651,534.761
c2.143-0.031,4.227-0.06,6.243-0.089c1.616-0.029,3.185-0.06,4.707-0.089c-3.364,1.26-6.667,3.236-9.901,5.177
c-1.506,0.902-2.938,1.762-4.367,2.545c0.007-1.914-0.599-3.617-1.764-4.957c-0.972-1.117-2.284-1.942-3.92-2.471
    C438.74,534.843,441.75,534.801,444.651,534.761z M420.425,535.003c1.217-0.01,2.427-0.02,3.629-0.029
c1.005-0.009,2.004-0.017,2.997-0.025c-0.615,0.259-1.177,0.581-1.671,0.968c-1.325,1.035-2.107,2.466-2.201,4.027
c-0.1,1.682,0.598,3.327,1.965,4.632c1.509,1.441,3.738,2.377,6.446,2.703c0.536,0.064,1.084,0.097,1.631,0.097
c1.852,0,3.77-0.367,5.838-1.12c-0.77,1.678-2.099,3.192-3.813,4.327c-2.235,1.481-5.035,2.265-8.092,2.265
c-0.752,0-1.529-0.049-2.311-0.142c-3.417-0.411-6.277-1.474-8.512-3.161c3.418-1.771,5.052-6.307,4.597-9.731
    c-0.33-2.492-1.646-4.191-3.663-4.797C418.321,535.012,419.376,535.007,420.425,535.003z
M401.879,535.053
c4.096-0.01,8.19-0.02,12.244-0.028c-1.149,0.394-2.099,1.254-2.749,2.514c-0.393,0.766-0.662,1.65-0.799,2.61
c-0.056-0.06-0.109-0.122-0.166-0.179c-1.009-0.983-2.463-1.505-4.203-1.505c-0.384,0-0.787,0.025-1.198,0.074
c-1.079,0.129-2.004,0.36-2.807,0.664c-0.803-0.304-1.726-0.535-2.805-0.664c-0.413-0.05-0.815-0.074-1.199-0.074
c-1.74,0-3.193,0.519-4.203,1.505c-0.059,0.057-0.11,0.118-0.165,0.178c-0.138-0.959-0.406-1.844-0.8-2.607
    c-0.652-1.268-1.605-2.128-2.759-2.521C394.115,535.03,397.997,535.041,401.879,535.053z
M379.704,534.97
    c1.202,0.01,2.412,0.02,3.629,0.029c1.216,0.004,2.439,0.009,3.665,0.013c0.051,0,0.102,0,0.152,0
c-2.023,0.602-3.345,2.304-3.675,4.801c-0.453,3.425,1.179,7.96,4.597,9.731c-2.234,1.688-5.095,2.75-8.512,3.161
c-0.781,0.093-1.56,0.142-2.312,0.142c-3.057,0-5.855-0.784-8.093-2.265c-1.713-1.135-3.042-2.649-3.812-4.327
c2.067,0.753,3.985,1.12,5.839,1.12c0.545,0,1.094-0.032,1.63-0.097c2.708-0.326,4.936-1.261,6.445-2.702
c1.368-1.306,2.065-2.951,1.965-4.632c-0.095-1.561-0.876-2.992-2.201-4.027c-0.493-0.386-1.053-0.708-1.666-0.966
    C378.135,534.957,378.917,534.964,379.704,534.97z M352.863,534.668c2.017,0.028,4.1,0.059,6.243,0.089
c3.1,0.041,6.322,0.089,9.637,0.122c-1.63,0.531-2.94,1.354-3.908,2.469c-1.167,1.34-1.771,3.043-1.765,4.957
c-1.429-0.783-2.86-1.641-4.367-2.544c-3.226-1.935-6.521-3.908-9.877-5.168C350.138,534.617,351.483,534.643,352.863,534.668z"
    />
</svg>
